<svg width="500" height="621" viewBox="0 0 500 621" fill="none" xmlns="http://www.w3.org/2000/svg">
<path d="M500 310.5C500 481.984 388.071 621 250 621C111.929 621 0 481.984 0 310.5C0 139.016 111.929 0 250 0C388.071 0 500 139.016 500 310.5Z" fill="#C7D2FE"/>
<line x1="252.397" y1="492.517" x2="252.397" y2="178.448" stroke="#18181B" stroke-width="16"/>
<line x1="258.238" y1="183.58" x2="390" y2="183.58" stroke="#18181B" stroke-width="16"/>
<line x1="163.196" y1="183.58" x2="260.398" y2="183.58" stroke="#18181B" stroke-width="16"/>
<line x1="250.677" y1="326.935" x2="390" y2="326.935" stroke="#18181B" stroke-width="16"/>
<line x1="163.196" y1="326.935" x2="260.398" y2="326.935" stroke="#18181B" stroke-width="16"/>
<path d="M171.5 327C150.195 327 129.892 319.256 115.026 305.664C100.185 292.095 92 273.852 92 255C92 236.147 100.185 217.905 115.026 204.336C129.892 190.744 150.195 183 171.5 183" stroke="#18181B" stroke-width="16"/>
</svg>
